{"title":"1066-The Battle for England-AC3-XviD-DVDRip 2011","uid":6647864,"size":2240319672,"categoryP":"video","categoryS":"movies","magnet":"?xt=urn:btih:9cc6d292bb1e904067dd38791f14f9da2ef36748&amp;dn=1066-The+Battle+for+England-AC3-XviD-DVDRip+2011&amp;tr=udp%3A%2F%2Ftracker.openbittorrent.com%3A80&amp;tr=udp%3A%2F%2Fopen.demonii.com%3A1337&amp;tr=udp%3A%2F%2Ftracker.coppersurfer.tk%3A6969&amp;tr=udp%3A%2F%2Fexodus.desync.com%3A6969","seeders":0,"leechers":0,"uploader":"FatFreddy31","files":-1,"time":1315014647,"description":"[img]http://img801.imageshack.us/img801/8088/poster320x200.jpg[/img]\n\nInfo: http://www.aceshowbiz.com/movie/1066/\n\nDutch Releasedate: 2011\n\nAudio: English.  Subs: English hardcoded when needed &amp; Dutch subs (selectable).\n\nTotal playingtime: 150 minutes ( 3 parts).\n\n\nGeneral\nComplete name                    : 1066-The Battle for England-AC3-XviD-DVDRip 2011\\Part 1.avi\nFormat                           : AVI\nFormat/Info                      : Audio Video Interleave\nFile size                        : 712 MiB\nDuration                         : 48mn 37s\nOverall bit rate                 : 2 048 Kbps\nWriting application              : VirtualDubMod 1.5.4.1 (build 2178/release)\nWriting library                  : VirtualDubMod build 2178/release\n\nVideo\nID                               : 0\nFormat                           : MPEG-4 Visual\nFormat profile                   : Simple@L3\nFormat settings, BVOP            : No\nFormat settings, QPel            : No\nFormat settings, GMC             : No warppoints\nFormat settings, Matrix          : Default (H.263)\nCodec ID                         : XVID\nCodec ID/Hint                    : XviD\nDuration                         : 48mn 37s\nBit rate                         : 1 814 Kbps\nWidth                            : 640 pixels\nHeight                           : 352 pixels\nDisplay aspect ratio             : 16:9\nFrame rate                       : 25.000 fps\nResolution                       : 8 bits\nColorimetry                      : 4:2:0\nScan type                        : Progressive\nBits/(Pixel*Frame)               : 0.322\nStream size                      : 631 MiB (89%)\nWriting library                  : XviD 1.1.2 (UTC 2006-11-01)\n\nAudio\nID                               : 1\nFormat                           : AC-3\nFormat/Info                      : Audio Coding 3\nCodec ID                         : 2000\nDuration                         : 48mn 36s\nBit rate mode                    : Constant\nBit rate                         : 224 Kbps\nChannel(s)                       : 2 channels\nChannel positions                : L R\nSampling rate                    : 48.0 KHz\nStream size                      : 77.9 MiB (11%)\nAlignment                        : Split accross interleaves\nInterleave, duration             : 40 ms (1.00 video frame)\nInterleave, preload duration     : 500 ms\n\nEnjoy...\n\n[img]http://img713.imageshack.us/img713/692/1066thebattleforengland.jpg[/img]","torrent":{"xt":"urn:btih:9cc6d292bb1e904067dd38791f14f9da2ef36748","amp;dn":"1066-The+Battle+for+England-AC3-XviD-DVDRip+2011","amp;tr":["udp%3A%2F%2Ftracker.openbittorrent.com%3A80","udp%3A%2F%2Fopen.demonii.com%3A1337","udp%3A%2F%2Ftracker.coppersurfer.tk%3A6969","udp%3A%2F%2Fexodus.desync.com%3A6969"],"infoHash":"9cc6d292bb1e904067dd38791f14f9da2ef36748","infoHashBuffer":{"type":"Buffer","data":[156,198,210,146,187,30,144,64,103,221,56,121,31,20,249,218,46,243,103,72]},"announce":[],"urlList":[]}}